<svg width="87" height="90" viewBox="0 0 87 90" fill="none" xmlns="http://www.w3.org/2000/svg">
<g filter="url(#filter0_d_1068_2933)">
<path d="M43.5 5.4375C35.972 5.4375 28.613 7.66983 22.3536 11.8522C16.0943 16.0345 11.2157 21.9791 8.33485 28.9341C5.45399 35.8891 4.70023 43.5422 6.16888 50.9256C7.63753 58.309 11.2626 65.0911 16.5858 70.4143C21.9089 75.7374 28.691 79.3625 36.0744 80.8311C43.4578 82.2998 51.1109 81.546 58.0659 78.6652C65.0209 75.7843 70.9655 70.9057 75.1478 64.6464C79.3302 58.387 81.5625 51.0281 81.5625 43.5C81.5625 33.4052 77.5524 23.7239 70.4143 16.5857C63.2762 9.44764 53.5948 5.4375 43.5 5.4375ZM43.5 76.125C37.0474 76.125 30.7397 74.2116 25.3745 70.6267C20.0094 67.0418 15.8278 61.9465 13.3584 55.985C10.8891 50.0236 10.2431 43.4638 11.5019 37.1352C12.7607 30.8065 15.868 24.9933 20.4307 20.4306C24.9933 15.868 30.8066 12.7607 37.1352 11.5019C43.4638 10.243 50.0236 10.8891 55.9851 13.3584C61.9465 15.8277 67.0418 20.0094 70.6267 25.3745C74.2116 30.7397 76.125 37.0474 76.125 43.5C76.125 52.1527 72.6877 60.451 66.5694 66.5694C60.451 72.6877 52.1527 76.125 43.5 76.125Z" fill="#D9D9D9"/>
<path d="M40.7813 21.75H46.2188V51.6562H40.7813V21.75ZM43.5 59.8125C42.6934 59.8125 41.905 60.0517 41.2343 60.4998C40.5637 60.9479 40.041 61.5848 39.7323 62.33C39.4236 63.0752 39.3429 63.8951 39.5002 64.6862C39.6576 65.4773 40.046 66.204 40.6163 66.7743C41.1867 67.3446 41.9133 67.733 42.7044 67.8904C43.4955 68.0477 44.3155 67.967 45.0606 67.6583C45.8058 67.3497 46.4427 66.827 46.8908 66.1563C47.3389 65.4857 47.5781 64.6972 47.5781 63.8906C47.5781 62.809 47.1485 61.7718 46.3837 61.007C45.6189 60.2422 44.5816 59.8125 43.5 59.8125Z" fill="#D9D9D9"/>
</g>
<defs>
<filter id="filter0_d_1068_2933" x="-4" y="0" width="95" height="95" filterUnits="userSpaceOnUse" color-interpolation-filters="sRGB">
<feFlood flood-opacity="0" result="BackgroundImageFix"/>
<feColorMatrix in="SourceAlpha" type="matrix" values="0 0 0 0 0 0 0 0 0 0 0 0 0 0 0 0 0 0 127 0" result="hardAlpha"/>
<feOffset dy="4"/>
<feGaussianBlur stdDeviation="2"/>
<feComposite in2="hardAlpha" operator="out"/>
<feColorMatrix type="matrix" values="0 0 0 0 0 0 0 0 0 0 0 0 0 0 0 0 0 0 0.25 0"/>
<feBlend mode="normal" in2="BackgroundImageFix" result="effect1_dropShadow_1068_2933"/>
<feBlend mode="normal" in="SourceGraphic" in2="effect1_dropShadow_1068_2933" result="shape"/>
</filter>
</defs>
</svg>
