<svg width="29" height="29" viewBox="0 0 29 29" fill="none" xmlns="http://www.w3.org/2000/svg">
<path d="M0.956421 15.2203C0.956421 12.1738 0.956421 10.6513 1.64849 9.38955C2.33791 8.12651 3.60094 7.34394 6.12568 5.77612L8.78751 4.12446C11.456 2.46748 12.7909 1.63965 14.2655 1.63965C15.7402 1.63965 17.0738 2.46748 19.7436 4.12446L22.4054 5.77612C24.9301 7.34394 26.1932 8.12651 26.8839 9.38955C27.5747 10.6526 27.5747 12.1738 27.5747 15.2189V17.2446C27.5747 22.4351 27.5747 25.0318 26.0148 26.6448C24.455 28.2579 21.9462 28.2579 16.9274 28.2579H11.6037C6.58485 28.2579 4.07475 28.2579 2.51625 26.6448C0.957752 25.0318 0.956421 22.4365 0.956421 17.2446V15.2203Z" stroke="black" stroke-width="1.5"/>
<path d="M14.2656 18.9414V22.9341" stroke="black" stroke-width="1.5" stroke-linecap="round"/>
</svg>
