<svg width="19" height="19" viewBox="0 0 19 19" fill="none" xmlns="http://www.w3.org/2000/svg">
<path fill-rule="evenodd" clip-rule="evenodd" d="M0.494 5.53185C0 6.4315 0 7.51925 0 9.69285V11.1388C0 14.8438 -1.13249e-07 16.6972 1.1134 17.8486C2.2268 19 4.01755 19 7.6 19H11.4C14.9824 19 16.7741 19 17.8866 17.8486C18.999 16.6972 19 14.8447 19 11.1388V9.6938C19 7.51925 19 6.43245 18.506 5.53185C18.0139 4.6303 17.1123 4.0717 15.3102 2.9526L13.4102 1.77365C11.5054 0.5909 10.5526 0 9.5 0C8.4474 0 7.4955 0.5909 5.5898 1.77365L3.6898 2.9526C1.88765 4.0717 0.98705 4.6303 0.494 5.53185ZM8.7875 15.2C8.7875 15.389 8.86257 15.5702 8.99619 15.7038C9.12981 15.8374 9.31103 15.9125 9.5 15.9125C9.68897 15.9125 9.87019 15.8374 10.0038 15.7038C10.1374 15.5702 10.2125 15.389 10.2125 15.2V12.35C10.2125 12.161 10.1374 11.9798 10.0038 11.8462C9.87019 11.7126 9.68897 11.6375 9.5 11.6375C9.31103 11.6375 9.12981 11.7126 8.99619 11.8462C8.86257 11.9798 8.7875 12.161 8.7875 12.35V15.2Z" fill="black"/>
</svg>
