<svg width="27" height="29" viewBox="0 0 27 29" fill="none" xmlns="http://www.w3.org/2000/svg">
<path d="M18.8519 3.97363C21.7466 3.9896 23.3144 4.1187 24.3366 5.14084C25.5065 6.31071 25.5065 8.19262 25.5065 11.9564V19.9419C25.5065 23.7071 25.5065 25.589 24.3366 26.7588C23.168 27.9274 21.2848 27.9274 17.521 27.9274H9.53552C5.7717 27.9274 3.88846 27.9274 2.71992 26.7588C1.55005 25.5876 1.55005 23.7071 1.55005 19.9419V11.9564C1.55005 8.19262 1.55005 6.31071 2.71992 5.14084C3.74206 4.1187 5.30987 3.9896 8.20461 3.97363" stroke="black" stroke-width="1.5"/>
<path d="M11.5318 17.2803H20.1828M6.87366 17.2803H7.53911M6.87366 12.6221H7.53911M6.87366 21.9385H7.53911M11.5318 12.6221H20.1828M11.5318 21.9385H20.1828" stroke="black" stroke-width="1.5" stroke-linecap="round"/>
<path d="M8.20459 3.30594C8.20459 2.77647 8.41492 2.26868 8.78931 1.89429C9.1637 1.5199 9.67149 1.30957 10.201 1.30957H16.8555C17.385 1.30957 17.8928 1.5199 18.2672 1.89429C18.6416 2.26868 18.8519 2.77647 18.8519 3.30594V4.63685C18.8519 5.16632 18.6416 5.6741 18.2672 6.0485C17.8928 6.42289 17.385 6.63322 16.8555 6.63322H10.201C9.67149 6.63322 9.1637 6.42289 8.78931 6.0485C8.41492 5.6741 8.20459 5.16632 8.20459 4.63685V3.30594Z" stroke="black" stroke-width="1.5"/>
</svg>
