<svg width="24" height="24" viewBox="0 0 24 24" fill="none" xmlns="http://www.w3.org/2000/svg">
<path d="M7.00035 5.00016C5.85106 4.99941 4.7366 5.39461 3.84454 6.11924C2.95248 6.84388 2.33729 7.8537 2.10252 8.97875C1.86774 10.1038 2.02771 11.2754 2.5555 12.2963C3.08329 13.3173 3.94668 14.1252 5.00035 14.5842V17.2502H19.0003V14.5842C20.1116 14.0992 21.0089 13.227 21.5252 12.1299C22.0414 11.0328 22.1415 9.7855 21.8068 8.62011C21.4721 7.45472 20.7254 6.45061 19.7057 5.79464C18.6859 5.13867 17.4626 4.87552 16.2633 5.05416C15.9609 4.16347 15.3872 3.38987 14.6226 2.842C13.858 2.29413 12.941 1.99951 12.0003 1.99951C11.0597 1.99951 10.1427 2.29413 9.37813 2.842C8.61354 3.38987 8.03975 4.16347 7.73735 5.05416C7.49335 5.018 7.24701 4.99995 7.00035 5.00016ZM18.9983 18.7502H5.00235C5.01235 20.1472 5.08335 20.9122 5.58635 21.4142C6.17235 22.0002 7.11435 22.0002 9.00035 22.0002H15.0003C16.8863 22.0002 17.8283 22.0002 18.4143 21.4142C18.9173 20.9122 18.9883 20.1472 18.9983 18.7502Z" fill="black"/>
</svg>
