<svg width="29" height="30" viewBox="0 0 29 30" fill="none" xmlns="http://www.w3.org/2000/svg">
<path d="M5.14754 18.7249H6.14572C6.14562 18.5308 6.08891 18.3409 5.98254 18.1785C5.87616 18.0161 5.72474 17.8882 5.54681 17.8106L5.14754 18.7249ZM23.7803 18.7249L23.381 17.8106C23.2031 17.8882 23.0517 18.0161 22.9453 18.1785C22.8389 18.3409 22.7822 18.5308 22.7821 18.7249H23.7803ZM19.4548 8.63126C19.4548 8.89599 19.56 9.14989 19.7472 9.33708C19.9344 9.52428 20.1883 9.62944 20.453 9.62944C20.7178 9.62944 20.9716 9.52428 21.1588 9.33708C21.346 9.14989 21.4512 8.89599 21.4512 8.63126H19.4548ZM7.47663 8.63126C7.47663 8.89599 7.5818 9.14989 7.76899 9.33708C7.95619 9.52428 8.21008 9.62944 8.47481 9.62944C8.73955 9.62944 8.99344 9.52428 9.18064 9.33708C9.36783 9.14989 9.473 8.89599 9.473 8.63126H7.47663ZM7.80936 4.97125C5.77973 4.97125 3.83322 5.77752 2.39805 7.21269C0.962885 8.64785 0.156616 10.5944 0.156616 12.624H2.15298C2.15298 11.1238 2.74892 9.68511 3.8097 8.62433C4.87047 7.56356 6.3092 6.96762 7.80936 6.96762V4.97125ZM21.1185 6.96762C22.6186 6.96762 24.0574 7.56356 25.1181 8.62433C26.1789 9.68511 26.7749 11.1238 26.7749 12.624H28.7712C28.7712 10.5944 27.965 8.64785 26.5298 7.21269C25.0946 5.77752 23.1481 4.97125 21.1185 4.97125V6.96762ZM18.4567 27.5968H10.4712V29.5931H18.4567V27.5968ZM10.4712 27.5968C9.18818 27.5968 8.32575 27.5941 7.68292 27.5076C7.06937 27.4251 6.80585 27.2827 6.63283 27.1083L5.22207 28.5217C5.82763 29.1273 6.58226 29.3735 7.41807 29.4866C8.2246 29.5958 9.24408 29.5931 10.4712 29.5931V27.5968ZM4.14935 23.2713C4.14935 24.4984 4.14669 25.5179 4.25582 26.3244C4.36762 27.1602 4.61517 27.9148 5.22074 28.5204L6.63283 27.1096C6.45981 26.9366 6.31741 26.6731 6.23356 26.0582C6.14838 25.4167 6.14572 24.5543 6.14572 23.2713H4.14935ZM22.7821 23.2713C22.7821 24.5543 22.7795 25.4167 22.6929 26.0595C22.6104 26.6731 22.468 26.9366 22.2937 27.1096L23.7071 28.5204C24.3127 27.9148 24.5589 27.1602 24.672 26.3244C24.7811 25.5179 24.7785 24.4984 24.7785 23.2713H22.7821ZM18.4567 29.5931C19.6838 29.5931 20.7032 29.5958 21.5098 29.4866C22.3456 29.3748 23.1015 29.1273 23.7071 28.5204L22.295 27.1096C22.122 27.2827 21.8585 27.4251 21.2436 27.5089C20.6021 27.5941 19.7397 27.5968 18.4567 27.5968V29.5931ZM7.80936 6.96762C8.09329 6.96762 8.37189 6.98803 8.64517 7.02884L8.93664 5.05377C8.5633 4.99967 8.1866 4.9721 7.80936 4.97125V6.96762ZM14.4639 0.978516C13.0035 0.978119 11.5797 1.43533 10.3925 2.28588C9.20538 3.13644 8.31457 4.3376 7.84529 5.72055L9.73519 6.36205C10.0704 5.37404 10.7069 4.51594 11.5551 3.90839C12.4033 3.30083 13.4206 2.97436 14.4639 2.97488V0.978516ZM7.84529 5.72055C7.60171 6.44409 7.47721 7.20237 7.47663 7.9658H9.473C9.473 7.40283 9.56616 6.86381 9.73652 6.36205L7.84529 5.72055ZM21.1185 4.97125C20.7361 4.97125 20.3603 4.99876 19.9912 5.05377L20.284 7.02884C20.5601 6.98657 20.8391 6.9661 21.1185 6.96762V4.97125ZM14.4639 2.97488C15.507 2.97464 16.524 3.30123 17.3719 3.90877C18.2199 4.51631 18.8561 5.37426 19.1913 6.36205L21.0812 5.72055C20.612 4.33782 19.7214 3.13681 18.5345 2.28627C17.3476 1.43573 15.9241 0.978397 14.4639 0.978516V2.97488ZM19.1913 6.36205C19.3617 6.86381 19.4548 7.40283 19.4548 7.9658H21.4512C21.4512 7.1819 21.3208 6.42727 21.0812 5.72055L19.1913 6.36205ZM6.14572 23.2713V18.7249H4.14935V23.2713H6.14572ZM5.54681 17.8106C4.53772 17.3702 3.67909 16.6448 3.07624 15.7235C2.47338 14.8022 2.15251 13.725 2.15298 12.624H0.156616C0.156348 14.1133 0.590635 15.5703 1.40624 16.8164C2.22184 18.0625 3.38331 19.0435 4.74826 19.6392L5.54681 17.8106ZM22.7821 18.7249V23.2713H24.7785V18.7249H22.7821ZM26.7749 12.624C26.7753 13.725 26.4545 14.8022 25.8516 15.7235C25.2487 16.6448 24.3901 17.3702 23.381 17.8106L24.1796 19.6392C25.5445 19.0435 26.706 18.0625 27.5216 16.8164C28.3372 15.5703 28.7715 14.1133 28.7712 12.624H26.7749ZM19.4548 7.9658V8.63126H21.4512V7.9658H19.4548ZM7.47663 7.9658V8.63126H9.473V7.9658H7.47663Z" fill="black"/>
<path d="M5.14746 23.2705H23.7802" stroke="black" stroke-width="1.5" stroke-linecap="round" stroke-linejoin="round"/>
</svg>
